<?xml version="1.0" encoding="utf-8"?>
<!-- Generator: Adobe Illustrator 20.1.0, SVG Export Plug-In . SVG Version: 6.00 Build 0)  -->
<svg version="1.1" id="Camada_1" xmlns="http://www.w3.org/2000/svg" xmlns:xlink="http://www.w3.org/1999/xlink" x="0px" y="0px"
	 viewBox="0 0 92 92" style="enable-background:new 0 0 92 92;" xml:space="preserve">
<style type="text/css">
	.st0{fill:#1D1D1B;}
</style>
<path class="st0" d="M46,91.5C20.9,91.5,0.5,71.1,0.5,46S20.9,0.5,46,0.5S91.5,20.9,91.5,46S71,91.5,46,91.5z M46,3.5
	C22.6,3.5,3.5,22.6,3.5,46S22.6,88.5,46,88.5S88.5,69.4,88.5,46S69.4,3.5,46,3.5z"/>
<g id="poG2qM_1_">
	<g>
		<path d="M49.1,22.2c13,4.5,18.7,19.5,12,31.5c-0.6,1-0.4,1.5,0.3,2.2c4.4,4.3,3.9,3.6,8.1,7.8c1,1,1.9,2,2.3,3.4
			c0,0.6,0,1.2,0,1.8c-0.6,1.9-1.9,3.2-3.8,3.8c-0.6,0-1.2,0-1.8,0c-1.3-0.4-2.3-1.3-3.3-2.2c-4.2-4.3-3.7-3.4-7.8-7.6
			c-1-1-1.7-1.2-3-0.5c-12.5,6.7-28-0.3-31.4-14c-0.3-1.1-0.4-2.2-0.6-3.3c0-1.3,0-2.5,0-3.8c0.2-1.3,0.4-2.6,0.8-3.9
			c2.1-8.4,9.8-15,18.5-15.9c0.2,0,0.5-0.1,0.7-0.2c1.4,0,2.7,0,4.1,0C45.6,21.5,47.4,21.6,49.1,22.2z M41.9,27.3
			c-8.6,0-15.4,6.8-15.5,15.4c-0.1,8.4,6.8,15.4,15.2,15.5c8.8,0,15.6-6.6,15.7-15.4C57.4,34.3,50.5,27.3,41.9,27.3z"/>
	</g>
</g>
</svg>
