<?xml version="1.0" encoding="utf-8"?>
<!-- Generator: Adobe Illustrator 20.1.0, SVG Export Plug-In . SVG Version: 6.00 Build 0)  -->
<svg version="1.1" id="Camada_1" xmlns="http://www.w3.org/2000/svg" xmlns:xlink="http://www.w3.org/1999/xlink" x="0px" y="0px"
	 viewBox="0 0 92.8 92.9" style="enable-background:new 0 0 92.8 92.9;" xml:space="preserve">
<style type="text/css">
	.st0{fill:#3E5A9C;}
</style>
<path class="st0" d="M46.5,92.5c-25.4,0-46-20.6-46-46s20.6-46,46-46s46,20.6,46,46S71.8,92.5,46.5,92.5z M46.5,3.5
	c-23.7,0-43,19.3-43,43s19.3,43,43,43s43-19.3,43-43S70.2,3.5,46.5,3.5z"/>
<g id="s0jIio.tif">
	<g>
		<path class="st0" d="M50.2,23.3c2.6,0,5.2,0,7.8,0c0.6,0.2,0.8,0.7,0.8,1.4c0,2.3,0,4.6,0,6.9c0,1-0.3,1.3-1.4,1.3
			c-1.6,0-3.3-0.1-4.9,0.1c-0.6,0-1.1,0.2-1.6,0.5c-0.8,0.6-0.9,1.4-0.9,2.2c0,1.6,0,3.3,0,4.9c0,0.4,0.1,0.5,0.5,0.5
			c2.3,0,4.5,0,6.8,0c0.9,0,1.3,0.4,1.3,1.3c0,2.5,0,5.1,0,7.6c0,0.9-0.3,1.3-1.3,1.3c-2.2,0-4.4,0-6.6,0c-0.7,0-0.6-0.1-0.6,0.6
			c0,6.5,0,13.1,0,19.6c0,1-0.4,1.4-1.4,1.4c-2.5,0-5.1,0-7.6,0c-1.2,0-1.5-0.3-1.5-1.5c0-6.5,0-13.1,0-19.6c0-0.4-0.1-0.5-0.5-0.5
			c-1.9,0-3.8,0-5.7,0c-1,0-1.3-0.3-1.3-1.3c0-2.5,0-5,0-7.5c0-1,0.4-1.3,1.3-1.3c1.9,0,3.7,0,5.6,0c0.5,0,0.5-0.1,0.6-0.6
			c0-2.3-0.1-4.6,0.1-7c0.5-5.1,3.7-8.8,8.7-10C49,23.5,49.6,23.4,50.2,23.3z"/>
	</g>
</g>
</svg>
