<?xml version="1.0" encoding="utf-8"?>
<!-- Generator: Adobe Illustrator 20.1.0, SVG Export Plug-In . SVG Version: 6.00 Build 0)  -->
<svg version="1.1" id="Camada_1" xmlns="http://www.w3.org/2000/svg" xmlns:xlink="http://www.w3.org/1999/xlink" x="0px" y="0px"
	 viewBox="0 0 92.8 92.9" style="enable-background:new 0 0 92.8 92.9;" xml:space="preserve">
<style type="text/css">
	.st0{fill:#A500C0;}
</style>
<path class="st0" d="M46.5,92.4c-25.4,0-46-20.6-46-46s20.6-46,46-46s46,20.6,46,46S71.8,92.4,46.5,92.4z M46.5,3.4
	c-23.7,0-43,19.3-43,43s19.3,43,43,43s43-19.3,43-43S70.2,3.4,46.5,3.4z"/>
<g id="T7nCQP_1_">
	<g>
		<path class="st0" d="M71.9,47.9c0,2.2,0,4.5-0.1,6.7c0,1.6-0.1,3.2-0.3,4.9c-0.4,3.1-1.6,5.9-3.9,8.1c-1.5,1.4-3.2,2.4-5.1,3
			c-1.4,0.4-2.8,0.7-4.2,0.8c-3.2,0.2-6.5,0.2-9.7,0.2c-2.9,0-5.8,0-8.8-0.1c-1.9,0-3.7-0.1-5.6-0.4c-3.8-0.7-6.9-2.5-9-5.9
			c-0.9-1.5-1.5-3.1-1.8-4.7c-0.3-1.5-0.4-3.1-0.4-4.7c-0.1-4.3-0.1-8.5-0.1-12.8c0-2.3,0-4.6,0.2-6.9c0.2-2.5,0.7-4.9,2.1-7.1
			c1.6-2.6,4-4.4,6.9-5.4c1.7-0.5,3.4-0.8,5.1-0.9c3.1-0.2,6.2-0.2,9.4-0.2c2.8,0,5.7,0,8.5,0.1c1.4,0,2.9,0.1,4.3,0.3
			c2.9,0.4,5.5,1.3,7.8,3.3c2,1.8,3.3,4,3.9,6.6c0.4,1.5,0.5,3,0.6,4.5C72,40.7,71.9,44.3,71.9,47.9z M67.5,46.7c0-2,0-4.4,0-6.8
			c0-1.6-0.1-3.2-0.3-4.8c-0.2-1.3-0.5-2.5-1.2-3.6c-1.3-2.3-3.3-3.5-5.8-4.1c-1.6-0.4-3.3-0.4-4.9-0.4C53.6,27,51.9,27,50.1,27
			c-3.9,0-7.8-0.1-11.7,0.1c-1.6,0.1-3.3,0.2-4.9,0.7c-2,0.6-3.6,1.8-4.6,3.6c-0.9,1.4-1.2,3-1.4,4.6c-0.2,1.7-0.2,3.5-0.2,5.2
			c0,5-0.1,10,0.1,14.9c0.1,1.5,0.1,3,0.6,4.5c0.6,2.3,1.9,4,3.9,5.2c1.5,0.9,3.3,1.2,5,1.3c1.8,0.1,3.6,0.2,5.4,0.2
			c4.1,0,8.1,0.1,12.2,0c1.7,0,3.4,0,5.1-0.3c1.4-0.2,2.7-0.7,3.9-1.5c1.9-1.3,3-3.2,3.5-5.4c0.3-1.5,0.4-3,0.4-4.5
			C67.6,52.6,67.5,49.8,67.5,46.7z"/>
		<path class="st0" d="M47.4,59.6c-7,0-12.6-5.6-12.6-12.6c0-6.9,5.7-12.5,12.6-12.5c7,0,12.6,5.6,12.6,12.6
			C60,54,54.4,59.6,47.4,59.6z M47.4,38.9c-4.5,0-8.2,3.7-8.2,8.2c0,4.5,3.7,8.2,8.2,8.2c4.5,0,8.2-3.7,8.2-8.2
			C55.6,42.5,51.9,38.9,47.4,38.9z"/>
		<path class="st0" d="M60.6,31c1.6,0,2.9,1.3,2.9,3c0,1.6-1.3,2.9-3,2.9c-1.6,0-2.9-1.3-2.9-3C57.6,32.3,58.9,31,60.6,31z"/>
	</g>
</g>
</svg>
