<?xml version="1.0" encoding="utf-8"?>
<!-- Generator: Adobe Illustrator 20.1.0, SVG Export Plug-In . SVG Version: 6.00 Build 0)  -->
<svg version="1.1" id="Camada_1" xmlns="http://www.w3.org/2000/svg" xmlns:xlink="http://www.w3.org/1999/xlink" x="0px" y="0px"
	 viewBox="0 0 92 92" style="enable-background:new 0 0 92 92;" xml:space="preserve">
<style type="text/css">
	.st0{fill:#1D1D1B;}
</style>
<path class="st0" d="M46,91.7c-25.1,0-45.5-20.4-45.5-45.5S20.9,0.7,46,0.7s45.5,20.4,45.5,45.5S71,91.7,46,91.7z M46,3.7
	C22.6,3.7,3.5,22.7,3.5,46.2S22.6,88.7,46,88.7s42.5-19.1,42.5-42.5S69.4,3.7,46,3.7z"/>
<g id="wDTQsM_1_">
	<g>
		<path d="M48.4,36.9c-6.3,0-17.4,0-23.7,0c-3.3,0-4.8-1.4-4.8-4.1c0-2.7,1.6-4.2,4.8-4.2c12.7,0,30.1,0,42.7,0
			c3.3,0,4.8,1.3,4.8,4.1c0,2.8-1.5,4.2-4.7,4.2C61,36.9,54.7,36.9,48.4,36.9z"/>
		<path d="M48.1,65.7c-6.2,0-17.1,0-23.2,0c-3.5,0-5-1.4-5-4.2c0-2.7,1.6-4.1,4.8-4.1c12.7,0,30.1,0,42.7,0c3.3,0,4.7,1.4,4.7,4.2
			c0,2.8-1.6,4.1-4.8,4.1C60.9,65.7,54.5,65.7,48.1,65.7z"/>
		<path d="M48.6,43.1c6.4,0,12.9,0,19.3,0c2.9,0,4.4,1.4,4.4,4.1c0,2.6-1.5,4.1-4.4,4.1c-13,0-30.8,0-43.7,0c-2.9,0-4.4-1.4-4.4-4.1
			c0-2.6,1.5-4.1,4.4-4.1C30.7,43,41.9,43.1,48.6,43.1z"/>
	</g>
</g>
</svg>
