<?xml version="1.0" encoding="UTF-8" standalone="no"?><!DOCTYPE svg PUBLIC "-//W3C//DTD SVG 1.1//EN" "http://www.w3.org/Graphics/SVG/1.1/DTD/svg11.dtd"><svg width="100%" height="100%" viewBox="0 0 566 108" version="1.1" xmlns="http://www.w3.org/2000/svg" xmlns:xlink="http://www.w3.org/1999/xlink" xml:space="preserve" xmlns:serif="http://www.serif.com/" style="fill-rule:evenodd;clip-rule:evenodd;stroke-linejoin:round;stroke-miterlimit:2;"><g><rect id="canvas_background" x="-1" y="-1" width="567.91" height="110" style="fill:none;"/></g><g><path id="svg_1" d="M200.1,12.01l-14.73,0l-7.6,14.07l11.26,0l11.07,-14.07Z" style="fill:#1e96e6;fill-rule:nonzero;"/><path id="svg_2" d="M224.21,66.23c-6,0 -12.2,-3.28 -12.2,-11.54c0,-6.47 4.13,-11.63 10.98,-11.63c1.97,0 3.75,0.56 3.75,2.06l0,0.27l14.07,0l0,-4.39c0,-8.72 -11.07,-11.35 -17.83,-11.35c-18.29,0 -27.3,12.48 -27.3,25.24c0,3.71 0.75,7.32 2.21,10.6l-3.24,-0c-1.31,-0 -2.06,-0.75 -2.06,-2.06l0,-25.8c0,-4.78 -2.06,-6.85 -6.85,-6.85l-23.74,-0l0,-13.05l-15.76,-0l0,13.04l-6.66,-0l0,11.2c-4.68,-7.68 -13.53,-12.32 -23.83,-12.32c-15.1,-0 -27.21,10.23 -27.21,25.42c0,3.82 0.78,7.32 2.18,10.41l-2.56,-0c-1.14,-0 -2.06,-0.92 -2.06,-2.06l0,-15.67c0,-13.6 -7.6,-18.11 -17.36,-18.11c-8.54,-0 -13.04,4.6 -15.29,8.35l-0.19,-0c0,-0 0.09,-0.66 0.09,-1.13l0,-0.66c0,-3.28 -2.35,-5.44 -6.76,-5.44l-12.74,-0c-0.93,-0 -1.69,0.75 -1.69,1.69l0,10.23c0,0.93 0.75,1.69 1.69,1.69l1.88,-0c1.14,-0 2.06,0.92 2.06,2.06l0,32.65l16.23,-0l0,-21.38c0,-2.35 0.28,-4.5 0.94,-6.38c1.41,-4.13 4.5,-6.94 9.57,-6.94c3.57,-0 5.35,1.88 5.35,6.38l0,21.49c0,3.78 3.07,6.85 6.85,6.85l15.01,-0l0,-11.66c4.57,7.96 13.6,12.77 24.11,12.77c15.2,-0 27.3,-10.04 27.3,-25.14c0,-4.32 -0.98,-8.24 -2.73,-11.63l5.36,-0l0,17.83c0,16.23 14.92,18.29 22.61,18.29c2.63,-0 4.41,-0.28 4.41,-0.28l0,-14.08c0,-0 -0.84,0.09 -2.16,0.09c-3.1,-0 -8.63,-0.75 -8.63,-6.19l0,-15.66l13.33,-0c0.64,0.19 1.03,0.62 1.03,1.49l0,27.31c0,4.78 2.06,6.85 6.85,6.85l15.01,-0l0,-12.92c3.92,8.13 12.28,14.04 24.39,14.04c13.79,-0 21.39,-9.38 21.39,-9.38l-6.47,-10.88c0,-0 -6.38,6.28 -13.33,6.28Zm-93.88,-11.81l-22.14,12.78l-0,-25.56l22.14,12.78Z" style="fill:#1e96e6;fill-rule:nonzero;"/><path id="svg_3" d="M328.26,44c0,-1.5 2.06,-2.25 4.32,-2.25c2.35,0 4.41,0.94 4.41,2.25l0,2.35l14.07,0l0,-5.72c0,-8.73 -10.88,-10.98 -18.76,-10.98c-10.23,0 -19.89,4.5 -19.89,14.92c0,15.67 24.2,16.98 24.2,21.02c0,1.69 -1.31,2.35 -3.66,2.35c-7.41,0 -14.17,-6.94 -14.17,-6.94l-3.66,5.28l0,-0.77l-3.57,0c-1.31,0 -2.06,-0.75 -2.06,-2.06l0,-14.1c0,-11.07 -5.53,-19.7 -22.42,-19.7c-5.53,0 -19.23,0.56 -19.23,11.35l0,5.35l15.01,0l0,-2.16c0,-1.88 2.16,-2.35 4.22,-2.35c4.03,0 6.19,1.69 6.19,6.29l0,0.56l-0.66,0c-7.5,0 -28.05,1.6 -28.05,15.95c0,0.28 0.01,0.57 0.02,0.84l-1.15,0c-1.31,0 -2.06,-0.75 -2.06,-2.06l0,-25.8c0,-4.78 -2.06,-6.85 -6.85,-6.85l-19.76,0c4.18,1.68 7.57,4.64 7.57,9.47l0,4.13l0.74,0c1.31,0 2.06,0.75 2.06,2.06l0,25.81c0,4.78 2.06,6.85 6.85,6.85l15.03,0l0,-5.87c2.9,4.44 8.1,7 13.98,7c10.13,0 13.51,-7.04 13.51,-7.04l0.19,0l0,0.84c0,2.16 1.69,5.07 6.38,5.07l14.07,0l0,-4.57c3.5,2.54 9.52,5.69 17.83,5.69c11.26,0 19.8,-5.91 19.8,-15.67c-0.01,-16.23 -24.5,-15.57 -24.5,-20.54Zm-34.81,15.29c0,3.94 -3.75,8.54 -7.98,8.54c-3.19,-0 -4.6,-1.78 -4.6,-4.03c0,-3.85 5.91,-5.25 11.07,-5.25l1.5,-0l0,0.74l0.01,-0Z" style="fill:#1e96e6;fill-rule:nonzero;"/><path id="svg_4" d="M467.12,63.42l0,-14.07c0,-11.07 -5.53,-19.7 -22.42,-19.7c-5.53,0 -19.23,0.56 -19.23,11.35l0,5.35l15.01,0l0,-2.16c0,-1.88 2.16,-2.35 4.22,-2.35c4.03,0 6.19,1.69 6.19,6.29l0,0.56l-0.66,0c-7.5,0 -28.05,1.6 -28.05,15.95c0,0.27 0.01,0.54 0.02,0.8l-1.5,0c-1.29,0 -2.03,-0.74 -2.03,-2.03l0,-43.82c0,-4.71 -2.03,-6.73 -6.74,-6.73l-14.76,0l0,13.38l3.51,0c1.29,0 2.03,0.74 2.03,2.03l0,3.14c0,1.2 0.09,2.12 0.09,2.12l-0.18,0c0,0 -2.86,-3.32 -12.45,-3.32c-12.64,0 -21.68,9.78 -21.68,24.82c0,14.76 8.49,24.91 21.4,24.91c9.78,0 13.75,-6.46 13.75,-6.46l0.18,0l0,0.83c0,2.21 1.66,4.52 6.18,4.52l14.21,0l0,-6.28c2.8,4.85 8.22,7.67 14.4,7.67c10.13,0 13.51,-7.04 13.51,-7.04l0.19,0l0,0.84c0,2.16 1.69,5.07 6.38,5.07l14.07,0l0,-13.6l-3.57,0c-1.32,-0.01 -2.07,-0.76 -2.07,-2.07Zm-73.27,3.31c-5.54,0 -9.32,-4.61 -9.32,-11.72c0,-7.29 4.34,-11.35 9.32,-11.35c6.27,0 9.32,5.63 9.32,11.35c0,8.22 -4.52,11.72 -9.32,11.72Zm57.23,-7.44c0,3.94 -3.75,8.54 -7.98,8.54c-3.19,0 -4.6,-1.78 -4.6,-4.03c0,-3.85 5.91,-5.25 11.07,-5.25l1.5,0l0,0.74l0.01,0Z" style="fill:#1e96e6;fill-rule:nonzero;"/><path id="svg_5" d="M564.7,30.77l-8.26,0c-3.38,0 -5.82,1.41 -6.66,3.94l-7.22,21.77c-1.03,3.1 -1.78,7.79 -1.78,7.79l-0.19,0c0,0 -0.75,-4.69 -1.78,-7.79l-7.32,-21.77c-0.84,-2.53 -3.1,-3.94 -6.57,-3.94l-16.79,0l0,-13.04l-15.76,0l0,13.04l-6.66,0l0,12.67l6.19,0l0,17.83c0,16.23 14.92,18.29 22.61,18.29c2.63,0 4.41,-0.28 4.41,-0.28l0,-14.08c0,0 -0.84,0.09 -2.16,0.09c-3.1,0 -8.63,-0.75 -8.63,-6.19l0,-15.66l9.24,0c0.21,0.23 0.38,0.54 0.52,0.93l12.48,34.72l19.8,0l12.29,-33.21c0.38,-1.03 1.13,-1.5 2.25,-1.5c0.67,0 1.22,-0.55 1.22,-1.22l0,-11.17c-0.02,-0.67 -0.56,-1.22 -1.23,-1.22Z" style="fill:#1e96e6;fill-rule:nonzero;"/><path id="svg_6" d="M36.61,4.12c0.52,-0.51 0.8,-1.25 0.71,-2.02c-0.15,-1.32 -1.35,-2.26 -2.67,-2.08c-8.78,1.15 -16.76,5.08 -23.09,11.35c-6.33,6.28 -10.32,14.23 -11.54,23c-0.18,1.32 0.74,2.53 2.06,2.69c0.77,0.09 1.5,-0.19 2.02,-0.7c0.37,-0.37 0.63,-0.85 0.71,-1.41c1.07,-7.7 4.57,-14.67 10.12,-20.18c5.55,-5.51 12.56,-8.95 20.26,-9.96c0.56,-0.07 1.05,-0.32 1.42,-0.69Z" style="fill:#1e96e6;fill-rule:nonzero;"/><path id="svg_7" d="M37.88,20.91c0.54,-0.53 0.82,-1.3 0.71,-2.09c-0.19,-1.32 -1.42,-2.21 -2.74,-1.99c-4.75,0.78 -9.08,2.99 -12.52,6.41c-3.44,3.42 -5.69,7.73 -6.51,12.47c-0.23,1.32 0.66,2.55 1.97,2.76c0.79,0.12 1.56,-0.16 2.1,-0.69c0.35,-0.35 0.6,-0.81 0.69,-1.33c0.64,-3.73 2.41,-7.12 5.12,-9.8c2.71,-2.69 6.11,-4.43 9.84,-5.04c0.53,-0.1 0.99,-0.35 1.34,-0.7Z" style="fill:#1e96e6;fill-rule:nonzero;"/><rect id="svg_8" x="246.36" y="12.01" width="13.6" height="13.13" style="fill:#1e96e6;"/></g></svg>