<svg xmlns="http://www.w3.org/2000/svg"  viewBox="0 0 333334 333334" shape-rendering="geometricPrecision" text-rendering="geometricPrecision" image-rendering="optimizeQuality" fill-rule="evenodd" clip-rule="evenodd"><path d="M166667 0c46023 0 87690 18655 117851 48816s48816 71828 48816 117851-18655 87690-48816 117851-71828 48816-117851 48816-87690-18655-117851-48816S0 212690 0 166667 18655 78977 48816 48816 120644 0 166667 0zm32763 81567c2946 25149 16961 40147 41337 41711v28275c-14141 1393-26515-3262-40935-11933v52853c113 68984-74096 74233-95298 40023-14096-22744-8985-77419 41913-85525v28711c-11889 1959-18334 5610-21865 12361-21818 41722 54283 66545 49024-672V81567l25823 1zm73865-21529c-27287-27287-64987-44165-106628-44165-41642 0-79341 16878-106628 44165s-44165 64987-44165 106628c0 41642 16878 79341 44165 106628s64987 44165 106628 44165c41642 0 79341-16878 106628-44165s44165-64987 44165-106628c0-41642-16878-79341-44165-106628z" fill-rule="nonzero"/><path d="M198534 75214c2946 25149 18014 42894 42390 44458v23854l-157 15v-20262c-24377-1564-38391-16562-41337-41711l-25823-1v105804c3726 47623-33381 49038-47576 30982 16650 10413 43683 3644 40477-37335V75214h32026zm-69385 175395c-14590-3003-27856-11720-35647-24466-18929-30968-1866-81440 53035-86634l-90 7462c-50899 8107-56009 62781-41913 85525 5435 8770 14358 14939 24615 18113z" fill="#26f4ee"/><path d="M205929 83159c1678 14320 6946 26780 15670 35146-12253-6339-19648-18395-21964-35148l6294 2zm34838 45249c2077 441 4244 740 6499 884v28276c-14140 1393-26515-3263-40934-11934l2213 48425c0 15617 58 22754-8322 37120-20422 35009-58587 34993-81180 15057 29457 16920 80883 3673 80789-53765v-52853c14420 8672 26794 13326 40935 11933v-23144zm-94320 20438c2957-616 6062-1089 9327-1398v29820c-11889 1959-19440 5609-22970 12361-9944 19013 451 34512 14212 39395-17214-618-34295-18299-22433-40982 3531-6751 9976-10402 21865-12361v-26835z" fill="#fb2c53"/></svg>