<?xml version="1.0" encoding="utf-8"?>
<!-- Generator: Adobe Illustrator 20.1.0, SVG Export Plug-In . SVG Version: 6.00 Build 0)  -->
<svg version="1.1" id="Camada_1" xmlns="http://www.w3.org/2000/svg" xmlns:xlink="http://www.w3.org/1999/xlink" x="0px" y="0px"
	 viewBox="0 0 92.8 92.9" style="enable-background:new 0 0 92.8 92.9;" xml:space="preserve">
<style type="text/css">
	.st0{fill:#18A8E0;}
</style>
<path class="st0" d="M46.6,92.6c-25.4,0-46-20.6-46-46s20.6-46,46-46s46,20.6,46,46S71.9,92.6,46.6,92.6z M46.6,3.6
	c-23.7,0-43,19.3-43,43s19.3,43,43,43s43-19.3,43-43S70.3,3.6,46.6,3.6z"/>
<g id="r88xA9.tif">
	<g>
		<path class="st0" d="M37.3,61.5c-5-0.5-8.3-3-10.2-7.6c1.6,0.2,3.1,0.2,4.7-0.2c-5.4-1.7-8.2-5.3-8.6-10.9
			c1.5,0.6,3.1,1.3,4.9,1.2c-2.3-1.8-3.9-3.9-4.5-6.6c-0.6-2.7-0.3-5.4,1.2-7.8c0.2,0.1,0.3,0.3,0.5,0.4c3.4,3.9,7.5,6.9,12.3,8.8
			c3,1.2,6.2,1.8,9.4,2.1c0.5,0,0.3-0.3,0.3-0.5c-0.1-1.1-0.2-2.1-0.1-3.2c0.6-4.3,2.9-7.4,6.9-9c3.1-1.2,6.2-1.1,9.1,0.5
			c0.8,0.4,1.5,1,2.2,1.6c0.5,0.5,1.1,0.6,1.7,0.4c2-0.5,3.8-1.3,5.7-2.3c-0.7,2.5-2.3,4.2-4.3,5.8c2-0.2,3.8-0.9,5.7-1.4
			c-0.9,1.3-1.8,2.4-2.9,3.4c-0.6,0.5-1.2,1.1-1.8,1.6c-0.4,0.3-0.6,0.8-0.6,1.3c0.1,3.5-0.5,6.9-1.6,10.3
			c-2.5,7.4-6.9,13.3-13.7,17.3c-3.5,2.1-7.2,3.3-11.2,3.9c-5.1,0.7-10,0.3-14.9-1.3c-2.2-0.8-4.2-1.8-6.2-3c0,0-0.1-0.1-0.1-0.2
			C27.3,66.5,32.5,65,37.3,61.5z"/>
	</g>
</g>
</svg>
