<?xml version="1.0" encoding="utf-8"?>
<!-- Generator: Adobe Illustrator 20.1.0, SVG Export Plug-In . SVG Version: 6.00 Build 0)  -->
<svg version="1.1" id="Camada_1" xmlns="http://www.w3.org/2000/svg" xmlns:xlink="http://www.w3.org/1999/xlink" x="0px" y="0px"
	 viewBox="0 0 92.8 92.9" style="enable-background:new 0 0 92.8 92.9;" xml:space="preserve">
<style type="text/css">
	.st0{fill:#BE1622;}
</style>
<path class="st0" d="M46.6,92.4c-25.4,0-46-20.6-46-46s20.6-46,46-46s46,20.6,46,46S71.9,92.4,46.6,92.4z M46.6,3.4
	c-23.7,0-43,19.3-43,43s19.3,43,43,43s43-19.3,43-43S70.3,3.4,46.6,3.4z"/>
<g id="v9fEvO_1_">
	<g>
		<path class="st0" d="M44.9,28.9c7.6,0,13.3,0.1,19,0.4c1,0.1,2,0.1,3,0.3c2.6,0.6,4.2,2.2,5,4.7c0.6,1.9,0.7,4,0.9,6
			c0.3,3.2,0.2,6.4,0.2,9.6c0,2.8-0.2,5.7-0.6,8.5c-0.1,0.9-0.4,1.8-0.7,2.7c-1,2.6-3,4-5.7,4.3c-5.7,0.5-11.4,0.6-17.2,0.6
			c-6.3,0-12.5-0.1-18.8-0.4c-1.1-0.1-2.2-0.2-3.3-0.4c-2.6-0.6-4.2-2.1-5-4.6c-0.6-1.9-0.8-3.9-0.9-5.9c-0.3-4.2-0.3-8.4-0.1-12.6
			c0.1-2.5,0.2-4.9,0.9-7.4c1-3.6,3.5-5.1,6.7-5.3C34.4,29,40.6,28.9,44.9,28.9z M55.5,46.9c-0.3-0.1-0.4-0.2-0.6-0.3
			c-4.4-2.3-8.7-4.6-13.1-6.9c-0.5-0.3-0.5-0.3-0.5,0.3c0,4.5,0,9.1,0,13.6c0,0.7,0,0.7,0.6,0.4c3.4-1.8,6.8-3.5,10.2-5.3
			C53.2,48.1,54.3,47.5,55.5,46.9z"/>
	</g>
</g>
</svg>
